<?xml version="1.0" standalone="no"?>
<!DOCTYPE svg PUBLIC "-//W3C//DTD SVG 20010904//EN"
 "http://www.w3.org/TR/2001/REC-SVG-20010904/DTD/svg10.dtd">
<svg version="1.0" xmlns="http://www.w3.org/2000/svg"
 width="640.000000pt" height="640.000000pt" viewBox="0 0 640.000000 640.000000"
 preserveAspectRatio="xMidYMid meet">

<g transform="translate(0.000000,640.000000) scale(0.100000,-0.100000)"
fill="#000000" stroke="none">
<path d="M4815 6071 c-115 -41 -245 -132 -366 -255 l-100 -101 -1122 4 c-617
2 -1129 7 -1137 11 -8 5 -51 40 -95 79 -97 87 -235 183 -312 218 -38 18 -80
28 -129 31 l-72 4 -7 -50 c-4 -32 0 -91 10 -161 10 -61 15 -117 12 -126 -5
-12 -43 -15 -239 -17 l-233 -3 3 -1210 c2 -665 4 -1285 6 -1377 l4 -168 -194
0 c-211 0 -239 -6 -291 -62 -40 -42 -43 -69 -43 -349 l0 -269 110 0 109 0 3
91 3 92 109 -2 c61 -1 114 -5 119 -8 5 -3 7 -43 5 -89 l-5 -83 36 -3 36 -3 3
-381 c2 -347 4 -382 20 -396 9 -9 94 -55 187 -103 94 -49 235 -123 315 -165
80 -43 244 -127 365 -188 121 -61 242 -125 268 -142 l49 -31 -19 -29 c-22 -35
-108 -130 -282 -310 -142 -148 -160 -180 -96 -180 66 0 297 62 449 121 88 34
236 107 305 151 25 15 52 28 60 28 9 0 45 -16 81 -35 232 -126 407 -208 445
-208 49 1 146 42 355 153 85 44 170 84 188 87 28 5 51 -5 166 -76 73 -44 137
-81 141 -81 4 0 46 -17 94 -39 99 -45 254 -96 353 -116 68 -15 198 -21 198 -9
0 19 -36 61 -130 154 -145 143 -316 333 -340 379 -11 21 -10 26 6 38 18 14
333 171 594 296 63 30 190 95 282 145 92 49 187 99 211 111 80 39 75 11 79
441 l3 385 173 3 172 2 40 41 c22 23 45 58 50 78 7 22 10 119 8 246 l-3 210
-110 0 -110 0 -3 -178 -2 -178 -68 3 -67 3 -3 178 -2 177 -40 0 -40 0 -1 953
c-1 523 -4 1166 -8 1427 l-6 475 -222 0 c-122 0 -224 3 -228 7 -3 3 -2 41 4
83 13 87 14 254 3 272 -13 21 -56 23 -107 4z m-3187 -100 c80 -42 300 -229
413 -352 152 -165 210 -233 227 -264 14 -24 17 -60 18 -190 0 -88 6 -191 13
-229 6 -38 9 -71 6 -74 -18 -19 -197 86 -281 165 -46 43 -131 143 -191 224
-139 189 -260 481 -279 672 -6 64 -5 67 15 67 12 0 38 -9 59 -19z m3212 -40
c0 -28 -49 -208 -80 -293 -62 -170 -169 -327 -335 -493 -122 -122 -249 -225
-278 -225 -2 0 -3 53 -3 118 1 64 -1 151 -3 193 -2 55 1 84 12 106 21 39 327
373 398 434 111 94 264 193 282 182 4 -2 7 -12 7 -22z m-1808 -503 c5 -7 7
-85 5 -173 -2 -88 0 -231 6 -318 7 -104 7 -161 0 -168 -6 -6 -28 12 -64 53
-65 76 -100 111 -387 387 -122 117 -222 217 -222 222 0 12 75 14 379 12 209
-2 277 -6 283 -15z m-1365 -55 c19 -34 30 -63 26 -66 -4 -3 -53 13 -108 36
-89 36 -111 41 -202 45 -74 3 -106 8 -115 19 -22 27 13 33 191 30 l174 -2 34
-62z m2413 57 c0 -12 -63 -76 -220 -224 -58 -55 -197 -188 -308 -295 -112
-108 -210 -197 -216 -199 -20 -5 -26 91 -26 424 l0 304 385 0 c256 0 385 -3
385 -10z m939 4 c17 -4 31 -10 31 -13 0 -12 -357 -183 -375 -179 -14 2 -12 10
14 45 16 23 42 64 56 92 15 27 32 52 38 55 18 7 200 7 236 0z m-3540 -139
c159 -54 279 -127 534 -328 69 -53 127 -104 130 -111 3 -8 2 -43 -3 -78 -9
-61 -4 -139 20 -282 5 -33 8 -62 5 -64 -16 -16 -276 132 -448 256 -154 111
-319 306 -411 488 -50 99 -55 127 -28 144 25 16 115 5 201 -25z m3621 18 c-1
-65 -62 -206 -135 -308 -53 -75 -204 -221 -310 -301 -140 -105 -305 -203 -342
-204 -10 0 -13 39 -13 164 0 161 0 165 25 194 61 73 275 211 528 340 97 50
190 100 205 111 33 25 42 26 42 4z m-2604 -141 c244 -218 564 -580 564 -639 0
-16 -154 -183 -170 -183 -3 0 -31 18 -61 41 -30 22 -92 66 -139 97 -237 157
-350 348 -350 592 0 115 14 180 40 180 9 0 61 -40 116 -88z m1538 36 c24 -92
-11 -340 -62 -428 -41 -72 -157 -178 -310 -284 -78 -54 -161 -121 -184 -147
-23 -27 -47 -49 -54 -49 -19 0 -26 55 -22 172 5 176 11 184 442 596 93 89 172
162 176 162 4 0 10 -10 14 -22z m-2700 -206 c37 -55 66 -105 66 -112 0 -15
-106 -6 -127 12 -9 7 -13 39 -13 104 0 52 2 94 4 94 3 0 34 -44 70 -98z m3816
-20 c0 -48 -9 -60 -50 -72 -59 -17 -59 4 2 83 35 43 48 40 48 -11z m-3820
-176 c122 -26 300 -122 470 -253 201 -155 222 -182 233 -306 4 -37 20 -106 37
-154 16 -48 30 -91 30 -95 0 -16 -50 -7 -112 19 -84 36 -327 181 -420 251
-108 82 -231 196 -279 260 -52 68 -118 197 -126 244 -5 32 -3 37 18 41 46 8
84 7 149 -7z m3890 -5 c0 -28 -69 -158 -126 -238 -74 -104 -174 -202 -282
-280 -149 -107 -341 -211 -420 -228 -30 -6 -33 -5 -29 11 15 50 36 144 42 189
4 28 13 64 19 80 13 31 72 91 137 142 20 15 79 62 130 104 111 90 165 126 239
165 72 36 194 73 248 73 35 1 42 -2 42 -18z m-2980 -9 c0 -31 296 -300 480
-437 70 -52 90 -72 90 -91 0 -6 -17 -33 -39 -60 -21 -27 -50 -72 -65 -101 -14
-28 -30 -54 -35 -57 -19 -12 -287 180 -354 254 -64 71 -117 215 -124 336 -6
97 8 164 33 164 8 0 14 -4 14 -8z m1970 -78 c0 -70 -58 -297 -80 -314 -4 -3
-19 -26 -34 -53 -29 -49 -98 -108 -196 -168 -105 -64 -185 -133 -314 -268 -27
-28 -54 -50 -60 -48 -7 2 -11 41 -11 108 0 96 3 109 31 169 35 73 93 138 186
206 35 25 83 63 108 84 25 20 86 72 137 114 51 42 114 103 140 134 77 92 93
98 93 36z m-916 -301 c15 -140 -41 -309 -153 -455 -30 -40 -60 -78 -65 -84 -6
-6 -38 -40 -71 -75 -33 -35 -98 -106 -144 -156 -46 -51 -87 -91 -91 -88 -15 9
-21 162 -10 255 14 127 40 193 125 318 51 75 259 275 374 358 21 16 27 5 35
-73z m-1964 -40 l42 -48 -27 -3 c-42 -5 -75 22 -75 63 0 19 4 35 9 35 5 0 28
-21 51 -47z m3799 1 c-6 -7 -15 -11 -21 -8 -5 3 -4 12 3 20 6 7 15 11 21 8 5
-3 4 -12 -3 -20z m-2968 -92 c79 -52 390 -296 423 -331 l30 -31 -12 -102 c-7
-57 -12 -117 -12 -135 0 -17 -5 -35 -10 -38 -17 -11 -181 100 -247 167 -150
152 -222 293 -223 436 0 57 8 63 51 34z m-836 -34 c117 -24 247 -80 380 -161
11 -7 44 -27 75 -45 70 -43 156 -126 181 -175 11 -21 35 -99 54 -175 25 -95
49 -165 82 -229 59 -116 55 -124 -49 -94 -389 116 -627 318 -816 697 -45 89
-68 164 -58 189 6 17 46 16 151 -7z m2965 -18 c0 -53 -51 -184 -100 -258 -66
-98 -137 -159 -420 -357 -63 -45 -145 -102 -182 -128 -37 -26 -72 -47 -79 -47
-8 0 -9 16 -5 58 7 63 60 179 104 227 24 26 214 185 335 280 46 35 90 71 227
183 56 45 106 82 111 82 5 0 9 -18 9 -40z m940 8 c0 -38 -96 -243 -155 -333
-20 -29 -72 -97 -118 -151 -108 -129 -222 -208 -412 -287 -89 -37 -165 -60
-173 -53 -3 4 8 48 26 99 17 51 44 144 58 207 14 63 35 129 45 145 52 87 287
254 439 312 75 28 234 72 268 73 12 0 22 -6 22 -12z m-1862 -310 c-4 -51 -15
-111 -31 -156 -35 -101 -216 -389 -292 -467 -135 -136 -276 -265 -291 -265
-15 0 -16 11 -12 90 9 150 64 246 276 477 154 168 196 217 275 331 69 97 81
95 75 -10z m-1106 -163 c170 -98 268 -171 299 -224 20 -33 21 -47 17 -211 -2
-96 -7 -181 -11 -188 -7 -9 -26 -1 -75 35 -126 88 -207 155 -246 201 -44 53
-118 203 -135 274 -11 49 -15 161 -5 170 11 12 77 -12 156 -57z m-954 23 c40
-47 63 -88 56 -99 -7 -12 -76 0 -86 15 -9 13 -11 116 -2 116 3 0 17 -14 32
-32z m2989 -60 c-9 -82 -66 -236 -113 -305 -83 -120 -241 -239 -476 -356 -168
-83 -174 -85 -170 -32 11 119 100 283 212 388 120 113 287 230 470 331 36 20
69 36 74 36 5 0 6 -28 3 -62z m843 -3 c0 -16 -6 -25 -15 -25 -16 0 -19 9 -9
34 9 25 24 19 24 -9z m-3749 -175 c88 -23 215 -75 301 -123 35 -19 98 -54 142
-76 146 -77 169 -104 216 -250 18 -55 49 -120 80 -168 49 -75 60 -103 40 -103
-17 0 -119 184 -146 265 -33 100 -45 123 -81 157 -49 46 -381 216 -503 258
-79 27 -164 37 -174 21 -17 -26 65 -189 150 -301 102 -135 282 -257 494 -335
121 -44 120 -44 77 -44 -51 -1 -217 67 -336 138 -128 77 -254 208 -335 349
-90 157 -100 203 -52 222 31 13 45 12 127 -10z m3779 -22 c0 -36 -73 -172
-151 -278 -48 -66 -136 -146 -276 -251 -55 -41 -73 -49 -109 -49 -38 0 -44 -3
-44 -20 0 -13 -10 -24 -25 -30 -62 -23 -191 -51 -227 -48 l-39 3 42 85 c23 47
52 114 65 148 65 171 83 187 369 336 167 88 288 134 353 135 41 1 42 0 42 -31z
m-1780 -37 c0 -5 -11 -51 -24 -102 -20 -78 -70 -199 -149 -358 -29 -60 -145
-166 -294 -270 l-33 -22 0 118 0 118 67 70 c37 39 124 129 193 200 69 72 147
158 173 193 43 57 67 76 67 53z m-1135 -299 c99 -46 229 -118 272 -150 37 -27
53 -72 53 -144 0 -36 -4 -48 -15 -48 -12 0 -15 14 -15 68 0 61 -3 71 -27 95
-55 52 -383 209 -383 183 0 -3 12 -38 26 -78 33 -92 67 -160 110 -221 39 -55
40 -57 16 -57 -39 0 -181 303 -182 389 0 20 50 7 145 -37z m-860 -84 c63 -62
111 -116 109 -120 -3 -4 -27 -8 -54 -8 -52 0 -100 -14 -112 -33 -5 -8 -8 -4
-8 10 0 16 -7 22 -27 25 l-28 3 -3 118 c-1 64 0 117 4 117 4 0 57 -50 119
-112z m2895 80 c-1 -43 -46 -153 -93 -223 -76 -115 -76 -115 -152 -115 -63 0
-69 2 -99 33 -30 33 -62 49 -120 62 -27 6 -22 10 85 72 63 36 155 90 206 120
126 75 173 89 173 51z m857 -99 c-4 -56 -8 -103 -10 -105 -8 -8 -127 40 -127
50 0 16 119 156 132 156 8 0 9 -29 5 -101z m-1726 -88 c-16 -53 -28 -74 -54
-94 -36 -27 -51 -58 -62 -122 -6 -34 -21 -54 -102 -132 -52 -51 -99 -93 -105
-93 -10 0 94 123 127 150 11 9 15 32 15 81 0 40 5 73 13 81 29 32 95 117 122
158 16 25 36 53 45 64 14 18 15 18 18 -3 2 -12 -6 -53 -17 -90z m-1678 -131
l62 -18 -42 -1 c-65 -1 -143 18 -143 36 0 16 17 14 123 -17z m3247 -10 c0 -6
-33 -9 -82 -8 -71 1 -77 2 -38 8 70 11 120 11 120 0z m-402 -262 l-3 -171 -45
-23 c-25 -12 -46 -21 -47 -20 -2 2 -4 77 -6 169 l-2 166 40 25 c67 44 66 46
63 -146z m-3623 102 c0 -12 -21 -16 -117 -18 -113 -3 -118 -2 -118 18 0 20 5
21 118 18 96 -2 117 -6 117 -18z m2795 -44 l0 -64 -39 -15 c-40 -17 -151 -47
-170 -47 -17 0 -13 22 20 109 l31 81 79 0 79 0 0 -64z m-2365 -101 l0 -60 -32
-3 -33 -3 0 66 0 66 33 -3 32 -3 0 -60z m2845 52 c0 -22 -99 -217 -110 -217
-11 0 -15 212 -3 223 3 4 30 7 60 7 38 0 53 -4 53 -13z m870 -161 c0 -168 1
-174 21 -179 21 -6 21 -8 18 -290 -3 -232 -7 -287 -19 -302 -33 -39 -207 -142
-425 -250 -126 -63 -241 -116 -255 -117 -33 -3 -131 33 -127 46 2 6 42 33 88
59 115 67 144 90 196 161 72 97 107 179 107 256 l1 65 120 120 c104 104 126
131 162 205 67 136 68 190 7 216 -33 14 -34 16 -34 70 0 79 27 113 93 113 l47
1 0 -174z m-2631 113 c63 -32 89 -55 77 -66 -4 -4 -17 -1 -29 7 -12 8 -46 27
-74 43 -29 16 -53 33 -53 38 0 15 15 11 79 -22z m-815 -3 c16 -13 27 -29 25
-34 -5 -15 -69 26 -69 44 0 19 10 17 44 -10z m1638 -94 c-3 -59 -6 -71 -32
-97 l-30 -30 0 26 c0 14 -9 34 -20 44 -11 10 -20 23 -20 29 0 12 93 104 100
98 2 -2 3 -33 2 -70z m958 -137 c0 -8 -4 -15 -10 -15 -5 0 -7 7 -4 15 4 8 8
15 10 15 2 0 4 -7 4 -15z m-1230 -40 c8 -10 31 -15 66 -15 30 0 54 -4 54 -9 0
-5 -48 -47 -107 -93 -58 -45 -134 -106 -167 -134 -89 -74 -158 -124 -169 -124
-17 0 -2 94 23 143 33 67 103 138 190 196 82 55 92 58 110 36z m399 -14 c11
-7 8 -20 -19 -68 -138 -244 -281 -384 -573 -559 -159 -95 -167 -98 -167 -59 0
83 99 202 254 306 130 88 242 177 307 245 128 135 162 158 198 135z m-1977
-56 c35 -83 142 -212 248 -297 l45 -36 -27 -11 c-39 -15 -36 -41 18 -146 84
-163 157 -240 315 -331 43 -25 79 -49 79 -53 0 -9 -110 -41 -138 -41 -10 0
-86 34 -168 76 -428 219 -501 257 -521 277 -23 20 -23 22 -23 319 l0 299 76
-3 75 -3 21 -50z m111 13 c56 -96 199 -214 347 -288 133 -67 430 -152 430
-123 0 22 -129 253 -159 284 -41 44 -129 92 -229 124 -50 17 -92 33 -92 38 0
17 55 5 154 -34 89 -34 115 -49 165 -97 33 -32 74 -85 94 -122 101 -190 117
-222 113 -229 -14 -21 -225 28 -371 86 -238 95 -406 218 -478 351 -36 66 -12
74 26 10z m874 19 c46 -37 84 -59 91 -52 8 7 9 13 11 50 2 50 21 24 21 -30 0
-49 -2 -55 -21 -55 -25 0 -82 32 -121 68 -47 43 -31 59 19 19z m1583 14 c0
-27 -183 -110 -335 -151 -112 -31 -176 -46 -179 -42 -8 7 24 84 60 143 l35 59
210 0 c116 0 209 -4 209 -9z m870 -5 c0 -18 -44 -83 -88 -129 -138 -145 -388
-260 -614 -283 -55 -5 -68 -4 -68 7 0 35 102 221 149 272 31 34 96 69 211 113
83 32 89 33 248 33 130 1 162 -2 162 -13z m-2387 -180 l39 -16 -6 -67 c-7 -88
-25 -173 -37 -173 -22 0 -149 222 -149 261 0 20 4 21 58 17 31 -3 74 -13 95
-22z m1556 -23 c-37 -97 -131 -232 -187 -267 -21 -12 -78 -33 -129 -45 -50
-12 -146 -42 -212 -66 -122 -46 -151 -52 -151 -36 0 17 37 95 74 156 70 115
139 166 301 219 96 31 238 64 282 65 31 1 32 0 22 -26z m-1963 -273 c92 -21
238 -77 329 -125 70 -36 74 -49 55 -160 -14 -77 -31 -120 -54 -128 -42 -16
-297 83 -398 155 -107 77 -198 195 -198 258 0 14 9 20 38 23 55 6 137 -2 228
-23z m1218 8 c-20 -66 -108 -199 -179 -272 -79 -82 -249 -199 -397 -273 -79
-40 -149 -73 -156 -73 -18 0 -14 56 7 98 31 59 62 85 198 167 186 113 226 142
320 225 83 74 187 150 205 150 5 0 6 -10 2 -22z m1276 2 c13 -8 12 -15 -8 -52
-44 -83 -133 -164 -257 -234 -89 -50 -96 -52 -180 -75 -86 -23 -115 -24 -115
-4 0 23 117 236 147 267 32 34 87 55 212 84 105 24 178 29 201 14z m-590 -148
c0 -15 -72 -117 -103 -147 -58 -56 -121 -102 -188 -139 -154 -84 -429 -157
-429 -113 0 18 75 142 117 195 19 23 51 49 71 58 108 45 241 90 352 119 125
34 180 42 180 27z m-810 -287 c0 -12 -31 -66 -68 -118 -81 -115 -162 -203
-277 -300 -66 -56 -126 -107 -133 -114 -82 -79 -526 -312 -549 -289 -7 7 33
88 54 112 54 59 126 148 173 214 75 104 110 130 210 159 122 36 151 47 221 85
43 22 125 81 183 131 114 96 186 143 186 120z m-788 -123 c-3 -52 -50 -192
-77 -228 -13 -18 -16 -18 -78 14 -91 46 -181 122 -185 154 -4 30 29 57 93 78
40 13 221 40 240 35 6 -1 9 -25 7 -53z m1778 38 c75 -12 187 -47 196 -61 23
-39 -253 -218 -391 -254 -130 -34 -235 -32 -235 4 0 22 107 187 147 229 82 84
149 103 283 82z m-410 -57 c0 -30 -73 -147 -121 -194 -62 -60 -109 -74 -207
-59 -86 12 -210 58 -226 83 -14 23 -4 29 99 61 44 13 152 47 240 74 176 55
215 61 215 35z m-721 -365 c1 -42 -3 -80 -9 -83 -14 -9 -108 34 -115 52 -6 17
4 31 69 101 49 51 54 45 55 -70z m415 -14 c26 -10 19 -21 -29 -43 -67 -31 -85
-29 -85 14 l0 35 49 0 c27 0 56 -3 65 -6z"/>
<path d="M1584 5898 c22 -173 123 -418 248 -599 111 -163 355 -389 419 -389
21 0 22 3 16 68 -4 37 -7 128 -7 203 0 154 -2 160 -104 271 -215 235 -433 436
-523 482 -52 26 -56 22 -49 -36z"/>
<path d="M1290 5280 c0 -24 78 -168 143 -264 88 -131 252 -279 431 -391 53
-33 109 -68 124 -77 15 -10 54 -32 86 -49 l59 -31 -8 69 c-5 37 -9 124 -9 192
l-1 123 -55 45 c-124 100 -290 222 -376 275 -101 63 -248 118 -336 126 -55 5
-58 4 -58 -18z"/>
<path d="M2376 5202 c-12 -37 -15 -149 -5 -210 15 -99 49 -189 99 -267 52 -79
108 -130 255 -230 55 -38 115 -80 133 -93 l33 -25 65 64 c35 35 67 74 70 86 6
23 -46 105 -113 179 -15 17 -66 73 -113 125 -141 155 -387 389 -410 389 -5 0
-11 -8 -14 -18z"/>
<path d="M1200 4761 c0 -51 74 -181 149 -262 133 -144 261 -242 486 -371 140
-80 211 -112 219 -99 3 4 -6 43 -19 87 -13 43 -29 112 -35 153 -13 94 -35 128
-118 190 -37 28 -100 75 -141 106 -167 125 -385 225 -491 225 -48 0 -50 -1
-50 -29z"/>
<path d="M2220 4667 c0 -88 29 -209 67 -278 15 -28 56 -78 93 -112 61 -58 258
-197 278 -197 5 0 16 14 23 32 7 17 27 50 45 74 58 76 61 85 28 108 -95 69
-266 214 -378 319 -71 67 -135 123 -143 125 -10 3 -13 -14 -13 -71z"/>
<path d="M2142 4196 c13 -160 181 -380 376 -492 41 -23 51 -12 52 56 1 25 4
64 9 87 13 66 -4 90 -130 185 -63 47 -156 118 -207 157 -50 39 -95 71 -98 71
-4 0 -4 -29 -2 -64z"/>
<path d="M1200 4224 c0 -23 46 -134 88 -211 20 -38 43 -80 50 -94 53 -101 206
-263 327 -346 171 -116 495 -235 427 -158 -19 22 -64 142 -87 236 -56 220 -85
263 -247 372 -130 88 -209 128 -302 157 -36 11 -95 29 -131 40 -81 25 -125 26
-125 4z"/>
<path d="M2125 3733 c16 -137 99 -307 188 -389 74 -66 217 -165 228 -158 5 3
9 79 9 169 0 161 0 164 -26 194 -52 62 -337 241 -384 241 -21 0 -22 -3 -15
-57z"/>
<path d="M2393 2040 c7 -35 78 -154 92 -155 12 0 22 45 24 110 l1 51 -45 12
c-70 19 -78 17 -72 -18z"/>
<path d="M1865 1770 c-10 -16 21 -74 70 -128 51 -56 142 -126 212 -161 58 -29
231 -91 254 -91 10 0 25 13 33 28 16 30 38 170 30 184 -12 19 -230 115 -314
138 -137 38 -271 52 -285 30z"/>
<path d="M2195 1235 c-57 -13 -86 -27 -104 -48 -9 -12 -4 -22 32 -53 25 -22
73 -56 108 -76 50 -30 66 -35 75 -25 16 17 64 142 71 183 l6 34 -69 -1 c-38
-1 -92 -7 -119 -14z"/>
</g>
</svg>
